PathFileType	4	(X/Y/Z)	Kaydara	
DataRate	CameraRate	NumFrames	NumMarkers	Units	OrigDataRate	OrigDataStartFrame	OrigNumFrames	
120.00	120.00	4	72	mm	120.00	34	268	
Frame#	Time	Hips			RightUpLeg			RightLeg			RightFoot			RightFoot_End			LeftUpLeg			LeftLeg			LeftFoot			LeftFoot_End			Spine			Spine1			Spine2			Spine3			Neck			Head			Head_End			RightShoulder			RightArm			RightForeArm			RightHand			RightHandThumb1			RightHandThumb2			RightHandThumb3			RightHandThumb3_End			RightInHandIndex			RightHandIndex1			RightHandIndex2			RightHandIndex3			RightHandIndex3_End			RightInHandMiddle			RightHandMiddle1			RightHandMiddle2			RightHandMiddle3			RightHandMiddle3_End			RightInHandRing			RightHandRing1			RightHandRing2			RightHandRing3			RightHandRing3_End			RightInHandPinky			RightHandPinky1			RightHandPinky2			RightHandPinky3			RightHandPinky3_End			LeftShoulder			LeftArm			LeftForeArm			LeftHand			LeftHandThumb1			LeftHandThumb2			LeftHandThumb3			LeftHandThumb3_End			LeftInHandIndex			LeftHandIndex1			LeftHandIndex2			LeftHandIndex3			LeftHandIndex3_End			LeftInHandMiddle			LeftHandMiddle1			LeftHandMiddle2			LeftHandMiddle3			LeftHandMiddle3_End			LeftInHandRing			LeftHandRing1			LeftHandRing2			LeftHandRing3			LeftHandRing3_End			LeftInHandPinky			LeftHandPinky1			LeftHandPinky2			LeftHandPinky3			LeftHandPinky3_End			
		X1	Y1	Z1	X2	Y2	Z2	X3	Y3	Z3	X4	Y4	Z4	X5	Y5	Z5	X6	Y6	Z6	X7	Y7	Z7	X8	Y8	Z8	X9	Y9	Z9	X10	Y10	Z10	X11	Y11	Z11	X12	Y12	Z12	X13	Y13	Z13	X14	Y14	Z14	X15	Y15	Z15	X16	Y16	Z16	X17	Y17	Z17	X18	Y18	Z18	X19	Y19	Z19	X20	Y20	Z20	X21	Y21	Z21	X22	Y22	Z22	X23	Y23	Z23	X24	Y24	Z24	X25	Y25	Z25	X26	Y26	Z26	X27	Y27	Z27	X28	Y28	Z28	X29	Y29	Z29	X30	Y30	Z30	X31	Y31	Z31	X32	Y32	Z32	X33	Y33	Z33	X34	Y34	Z34	X35	Y35	Z35	X36	Y36	Z36	X37	Y37	Z37	X38	Y38	Z38	X39	Y39	Z39	X40	Y40	Z40	X41	Y41	Z41	X42	Y42	Z42	X43	Y43	Z43	X44	Y44	Z44	X45	Y45	Z45	X46	Y46	Z46	X47	Y47	Z47	X48	Y48	Z48	X49	Y49	Z49	X50	Y50	Z50	X51	Y51	Z51	X52	Y52	Z52	X53	Y53	Z53	X54	Y54	Z54	X55	Y55	Z55	X56	Y56	Z56	X57	Y57	Z57	X58	Y58	Z58	X59	Y59	Z59	X60	Y60	Z60	X61	Y61	Z61	X62	Y62	Z62	X63	Y63	Z63	X64	Y64	Z64	X65	Y65	Z65	X66	Y66	Z66	X67	Y67	Z67	X68	Y68	Z68	X69	Y69	Z69	X70	Y70	Z70	X71	Y71	Z71	X72	Y72	Z72	

34	0.275	8446.805	859.65103	-201.189	8540.565458164741	857.4597825010251	-232.55427157155174	8392.15321647198	468.7390001372214	-293.0905002849637	8417.840579875327	40.30240529693484	-341.0715733564517	8327.877105608608	-34.48279795223779	-178.94893748212735	8363.089159244302	834.4007590482803	-155.6231857342777	8242.759014968	436.1429213395477	-105.14545946146748	8190.130243220268	58.62678935701307	63.649379185037176	8217.394049809835	14.270473677896565	247.1450227049712	8397.16311650776	979.6223801953136	-261.4255936911729	8341.630403158555	1042.2125067031786	-310.73522316239485	8276.747189164804	1099.900547903619	-362.51365064431997	8206.418940642938	1144.861820991496	-412.4600862018498	8130.526507602031	1193.392546148602	-462.4057508020484	8088.628870821354	1265.4656742161083	-417.34708081424424	8065.338008399651	1350.105399128741	-283.63333225948674	8176.36352447418	1184.5380953837348	-466.463015063562	8258.708665190625	1185.0692781022158	-548.9074948633528	8319.683508517704	957.3824982516214	-574.0421115819004	8407.99396899747	839.6348589527448	-653.6114662371184	8408.750273936035	840.2623889910908	-669.7519800701513	8396.901172979657	837.1503618088188	-685.7917441374111	8390.139369236416	833.0792608901718	-695.5689943665205	8385.776926060347	828.0566345875842	-702.5283220870007	8416.001802692155	833.2060065832316	-666.0448146045075	8425.791531707859	817.570995763335	-680.7254083045888	8422.769331510553	808.2344901239717	-691.9835897179762	8413.518723760402	806.041553426774	-699.5501509793763	8400.889557629	806.6625758817675	-706.19568908112	8419.245917860599	828.6453197589375	-661.7950570093872	8430.552073935722	810.9280824261051	-673.815073781979	8427.638266733287	800.1909656932264	-685.4929251321341	8416.662008683095	797.2817700328897	-694.3303941347369	8402.93298014485	797.8331853475063	-701.460199269467	8421.399618202939	825.7909412595171	-658.4012147101685	8433.728128822393	807.3435687457707	-666.1784007940153	8431.561894263295	797.4520595200427	-675.7176227535883	8421.17272826597	794.3628638634235	-683.902590641975	8408.357947888886	794.7472101110302	-690.4455368176617	8422.719499745155	823.2001267634004	-654.196372998674	8435.218306767769	804.573224489706	-658.6857815970417	8434.01170269548	795.9016084845452	-665.2933613707133	8426.689231000186	793.285121942172	-670.7647442182028	8415.484419833874	793.4165555025259	-676.2736865527008	8134.444042932701	1173.2220957768088	-423.0894121345714	8076.227980032283	1105.9233781191244	-343.30133505514675	8183.352391655358	967.3065683983164	-518.4127715801694	8375.0544946735	884.4250830998838	-507.84839964700234	8363.536976953423	889.8485768238379	-514.2244468229555	8365.745164709544	887.6928130384117	-542.6558643486356	8368.319121811417	884.2795794412991	-564.5045979889751	8371.351336484804	879.7984798408521	-584.4718855390306	8364.949345058554	883.6816142114219	-520.7464299181732	8358.742831663903	874.6337413405163	-554.1593313609403	8361.07565523858	867.3261148414852	-584.9347431995823	8365.814787130588	864.4874646750303	-603.9354819308866	8371.955772945332	863.2876512260439	-619.5731307302715	8368.299770127405	878.748243147329	-525.5142599345187	8364.056471535261	867.2550443258527	-560.6809751606188	8367.072568396543	858.6581091468352	-594.7931924638037	8373.015956037061	854.9344942123964	-617.9712705951728	8379.845078450266	853.4763825028531	-635.2053559194483	8370.763220626228	875.489671351457	-527.9737393267043	8368.917418153527	862.3490021097471	-561.4602830993077	8372.034554928485	854.2374096440208	-591.6796584271206	8378.026744208879	850.3172480696653	-614.2954008257495	8384.570730230773	848.790616575479	-630.6223496715868	8374.270746178127	872.0278752213353	-530.284303064191	8374.530101128365	857.8246978573331	-562.2441319779869	8377.79648971184	850.4216847334785	-587.0569092722392	8382.53983844003	847.1232906185104	-603.8500446189317	8388.55119143666	845.5182882870848	-618.4840621968418
35	0.283	8446.805	859.65103	-201.189	8540.36620512216	857.4205491320346	-232.54086804243067	8392.2282055272	468.6271038147156	-292.86430242516974	8418.209382308756	40.44321016329049	-341.1241629746137	8328.564366871382	-34.438210853370975	-179.0952973114238	8363.27265837943	834.4319097027924	-155.6433784175436	8242.917926259783	436.215778544226	-104.9933262591122	8190.205935019881	58.74018936759859	63.8563419073304	8217.644739359055	14.38735220843029	247.29997510280782	8397.244082776788	979.660260615781	-261.3965478534006	8341.76405887429	1042.3151862979155	-310.66657154742245	8276.946845998995	1100.0927149781216	-362.4031712975004	8206.685325607279	1145.1590920433323	-412.31379467558975	8130.862898574868	1193.798768110336	-462.2197968810316	8088.977767656378	1265.8831858124727	-417.1806441008015	8065.676000992112	1350.5397961183305	-283.4937152924546	8176.634099819306	1184.9121147824019	-466.2400560349518	8258.850055278324	1185.5547459373374	-548.4664531235842	8320.181153947502	958.2343578021936	-573.4639527874887	8408.581875397715	841.2966202087289	-653.2241030286028	8409.396622789125	842.0970331836965	-669.2773046281814	8397.648740896755	839.1203094199676	-685.3289732272083	8390.9541983152	835.1352349526516	-695.129483692197	8386.645066555484	830.1773112791647	-702.1210088559607	8416.637465983138	835.031188053166	-665.609402297473	8426.507600105788	819.5979100278614	-680.2997616670251	8423.565266756088	810.38007058625	-691.5988676248818	8414.373828175378	808.240011450725	-699.1966527854523	8401.800055160007	808.8907048338415	-705.8719344549436	8419.871140086123	830.440147795232	-661.4016427707613	8431.25006648942	812.903262577342	-673.4538917292787	8428.421801287403	802.2909477229957	-685.18195240052	8417.5161567499	799.4432978867447	-694.0597563739077	8403.847363072624	800.0260852286592	-701.2234016843865	8422.015164090304	827.5593837873884	-658.0369761605905	8434.399766362105	809.2513441353303	-665.8676534404888	8432.30633442734	799.463536034065	-675.4562651881222	8421.984348197719	796.4310101689281	-683.6831277257488	8409.225761843218	796.8435764063142	-690.2593083032693	8423.323516661329	824.9306827613178	-653.867421815031	8435.865857142788	806.4089788854942	-658.4268219741298	8434.714568209862	797.8118736099543	-665.0824988084809	8427.439654972795	795.2325963281437	-670.5885745357895	8416.283792272716	795.3866537039672	-676.1293367326846	8134.799808213768	1173.5820501372282	-422.96994602692723	8076.674694171395	1106.3451987233648	-343.4276898019785	8183.71770176155	968.0869684199691	-518.2824919763835	8375.178407691694	885.789069651965	-507.6089108650534	8363.780405450265	891.347531170481	-513.975901144638	8366.070607285421	889.2476647587893	-542.3409065856031	8368.68874166632	885.8692572028637	-564.1431776543812	8371.746717499143	881.4136823827788	-584.0715489939253	8365.158743228967	885.1873499146271	-520.5019266658912	8359.028908985874	876.3014918914724	-553.8819552488593	8361.407716431288	869.0580100587164	-584.6043772279364	8366.17597563268	866.2233297916601	-603.5583672566813	8372.341433793	865.0025806128082	-619.1480103134793	8368.470961335659	880.2348759485774	-525.268889666828	8364.281789229213	868.8893826449141	-560.403081317853	8367.342764372088	860.3593352526038	-594.4574307626457	8373.318750082184	856.6390188827834	-617.5790864897443	8380.173413451575	855.157274822627	-634.7606342264904	8370.905467478213	876.9591725275777	-527.7288932119515	8369.0830637271	863.9374651746441	-561.1876157772747	8372.233814830231	855.880758579888	-591.3565548425214	8378.254525790398	851.961965734957	-613.9178741548885	8384.821142194987	850.4122547058287	-630.1954247893144	8374.377367534258	873.4690071318477	-530.0386671774087	8374.636264198034	859.3591778247597	-561.9734805294551	8377.920884464436	851.994266925422	-586.745991907912	8382.680835596073	848.6940421234365	-603.4994896446335	8388.709817459512	847.066966927424	-618.0897822870724
36	0.292	8446.805	859.65103	-201.189	8540.16326114165	857.3801046525602	-232.52810564907426	8392.303804706782	468.51321777633586	-292.63751669960146	8418.582131038202	40.586118982263784	-341.18231573629186	8329.260296312445	-34.393204622670844	-179.2490445472326	8363.459676376726	834.4642140431104	-155.6629490032289	8243.08013438428	436.29027866669605	-104.83858239866106	8190.28362547052	58.85473109503337	64.06408137960166	8217.899171234236	14.504313956833887	247.45479308663528	8397.326024489445	979.6984680916034	-261.3673755275787	8341.899210310317	1042.4188339052807	-310.5973141546006	8277.148622727716	1100.2867215457122	-362.2915160406888	8206.954446212301	1145.4592569095948	-412.165693847397	8131.202669154458	1194.208969166545	-462.03130604620844	8089.329783097411	1266.3047465598995	-417.0122688039337	8066.017416188959	1350.9789086310393	-283.3528065683956	8176.906832210446	1185.2892108004385	-466.0143631595118	8258.98982918835	1186.0419443699577	-548.0201135477179	8320.6768243327	959.0925056122715	-572.8748777237571	8409.163380042033	842.9690411827441	-652.8221548873134	8410.036742081724	843.943233760012	-668.7873190049497	8398.390717230895	841.102487480862	-684.8502796255541	8391.763806033527	837.2038606984265	-694.6736594918361	8387.508230967815	832.3109495964663	-701.6970868326766	8417.266578802259	836.8678573352538	-665.1587293281203	8427.216924452632	821.6373041222151	-679.8580060133461	8424.354703590197	812.5387042737716	-691.1975101309057	8415.222871022728	810.4517772597604	-698.8262637933333	8402.705044352999	811.1322835217816	-705.531126107471	8420.489635210795	832.2462924985543	-660.9930975851629	8431.941047483695	814.8906344407446	-673.0768214156847	8429.198570121014	804.4037212073803	-684.8545369648889	8418.36405547836	801.6179118611768	-693.7723773539258	8404.75609681655	802.2322204972148	-700.9696892263287	8422.623858643452	829.3389978235075	-657.6577193715062	8435.06417696365	811.1709523702507	-665.5413052696333	8433.043739730623	801.4873402207511	-675.1788451387746	8422.789419573199	798.5117535535671	-683.4473258103876	8410.087585952366	798.952673105133	-690.0565829818883	8423.920579207414	826.672205795744	-653.5236114797466	8436.50603034919	808.2561847466868	-658.1525647027648	8435.410177405052	799.7339400049307	-664.8560051372051	8428.183161395307	797.192046027437	-670.3965895761853	8417.076732913143	797.3688323951648	-675.9690419282251	8135.159790926846	1173.9461109036006	-422.848746367482	8077.128838820482	1106.7740819807639	-343.5540768423066	8184.086959150556	968.8749803713106	-518.1442834379901	8375.298009488279	887.1620471394299	-507.3606894194426	8364.020018207913	892.8561121426154	-513.7182833266141	8366.392425798611	890.8122619233956	-542.0157690945272	8369.054864063228	887.4687239811601	-563.7707539678321	8372.138700715952	883.0386767548708	-583.6594777365394	8365.364384188122	886.7026806738563	-520.2481864019746	8359.311886871223	877.979396616071	-553.5941445193621	8361.736934416082	870.8001786289033	-584.2624560958719	8366.534324172913	867.9693827242054	-603.1689787085414	8372.724152104198	866.7275193406666	-618.7100062553114	8368.638344150815	881.730964972524	-525.0141681778525	8364.503912476894	870.5336475152521	-560.1146064510324	8367.610036359229	862.0705974885584	-594.1098537583962	8373.618619669294	858.3534666629616	-617.1742144403853	8380.498709627482	856.8478901926685	-634.302554700667	8371.043855123882	878.4380201687856	-527.4746480830813	8369.245362441943	865.5356085301031	-560.9044126371786	8372.429953273488	857.5338616239088	-591.0218297511855	8378.479179973336	853.6163169712745	-613.5278789954866	8385.06831662599	852.0433328417269	-629.7553990660421	8374.480035266506	874.9193223583839	-529.7835934920811	8374.738892724632	860.9030556010342	-561.6923321513806	8378.041906797403	853.5762707199318	-586.4236977508235	8382.818447114154	850.2741102268195	-603.1369350141681	8388.864955169358	848.6247808666647	-617.6829396410521
37	0.3	8446.805	859.65103	-201.189	8539.956651152705	857.3384534144627	-232.5159869341134	8392.380003481008	468.39735597532	-292.4101739819478	8418.958778636263	40.73111349239832	-341.24602749262783	8329.964805586915	-34.347785176595266	-179.4101630010984	8363.650190402408	834.4976688278108	-155.68189399094805	8243.245619541356	436.36641310380287	-104.68124679672921	8190.3633049484515	58.97040006497997	64.27256945374138	8218.157312920546	14.621342946136162	247.60945492217948	8397.408930969808	979.7369974831021	-261.33808076773914	8342.035839750459	1042.5234357459271	-310.5274602109199	8277.352492718896	1100.4825417801612	-362.178699500468	8207.22626691117	1145.762275836175	-412.0158028171443	8131.545774417899	1194.6230950933666	-461.84030233069063	8089.684870200821	1266.7303005628694	-416.84197659361297	8066.362208421025	1351.422678873497	-283.21062450345903	8177.181684984368	1185.6693329945801	-465.7859654532194	8259.127965162083	1186.5308061153137	-547.5685331550629	8321.170448436354	959.9568275971445	-572.2749572790663	8409.738396704612	844.6519016935276	-652.4056635560125	8410.670536720405	845.8007476149194	-668.2820759310422	8399.126993067364	843.0966352742105	-684.3557133442586	8392.56807438496	839.2848662661686	-694.2015678999127	8388.366294167845	834.4572693469157	-701.2565972220109	8417.889047692051	838.7157726792428	-664.6928432163503	8427.91939988964	823.6889099189336	-679.4001864649291	8425.13752634944	814.7101076980466	-690.7795559170024	8416.065728796286	812.6765605929145	-698.4390178632439	8403.60439445124	813.3870179525372	-705.1732933579062	8421.101311488354	834.06351622825	-660.569463433078	8432.624914978222	816.8899368701477	-672.6838994873253	8429.968459762915	806.5290088698293	-684.5107077144932	8419.205582059683	803.8053268119631	-693.4682797981404	8405.65905069487	804.4513020727119	-700.6990794798553	8423.225611646394	831.1295492754232	-657.2634825060132	8435.72126269235	813.1021412896595	-665.1993864525306	8433.774002468754	803.5232065427926	-674.8853852785177	8423.587825830213	800.6048212536876	-683.1952012298677	8410.943296322183	801.0742239146307	-689.8373721702214	8424.510599022242	828.4244668510781	-653.1649755499342	8437.13873218798	810.1145995117142	-657.8630332869293	8436.098428730098	801.6675555409034	-664.6138967411589	8428.91964248382	799.1632141941191	-670.1888005603662	8417.86312760754	799.3628319224691	-675.7928086052606	8135.523944140714	1174.3142304861615	-422.72582859268215	8077.590356794816	1107.2099743818637	-343.6804788070531	8184.460115049292	969.6705017124447	-517.998158047	8375.413278366452	888.5438344387636	-507.1037614308598	8364.255777816124	894.3741202565394	-513.451619687783	8366.710571562278	892.386397255547	-541.6804862829574	8369.41743420189	889.0777676670345	-563.3873670603273	8372.527227726654	884.6732473279812	-583.235716746697	8365.566235202983	888.227406247044	-519.9852350152319	8359.591722679732	879.6672334786731	-553.2959283896128	8362.063260283769	872.5523897877684	-583.9090154644008	8366.8897796397	869.7253920221565	-602.767357887287	8373.103871083287	868.4622385886353	-618.2591663772857	8368.80189094582	883.2363126587392	-524.7501216829277	8364.722806749724	872.1876215683027	-559.8155801973119	8367.874343695334	863.7916693940201	-593.7504981571739	8373.915519404809	860.0776104719282	-616.7566983373471	8380.820917718238	858.5480045100769	-633.8311680475376	8371.178359799416	879.9260190995476	-527.2110302605295	8369.404287711597	867.1432211262473	-560.6107030383664	8372.62293905842	859.1965002755585	-590.6755187071226	8378.700671383807	855.2800829315134	-613.1254578489237	8385.312214699208	853.683635055548	-629.3023214196494	8374.578730326646	876.3786296239944	-529.5191086736381	8374.837967985199	862.4561275249332	-561.4007163737998	8378.159535449577	855.167487298902	-586.0900613305118	8382.952649247733	851.8632862492533	-602.7624203434018	8389.01657808474	850.1915242368947	-617.263579569492
